PathFileType	4	(X/Y/Z)	C:/Users/opensim2020/Desktop/walking_exp_matlab/subject06_walking21_straight_01_cyclic.trc	
DataRate	CameraRate	NumFrames	NumMarkers	Units	OrigDataRate	OrigDataStartFrame	OrigNumFrames	
100.00	100.00	8	44	mm	100.00	823	102	
Frame#	Time	LFHD			RFHD			LBHD			RBHD			C7			T10			CLAV			STRN			RBAK			LSHO			LUPA			LELB			LFRM			LWRA			LWRB			LFIN			RSHO			RUPA			RELB			RFRM			RWRA			RWRB			RFIN			LASI			RASI			LPSI			RPSI			LTHI			LKNE			LTIB			LANK			LHEE			LTOE			RTHI			RKNE			RTIB			RANK			RHEE			RTOE			*39			*40			*41			*42			*43			
		X1	Y1	Z1	X2	Y2	Z2	X3	Y3	Z3	X4	Y4	Z4	X5	Y5	Z5	X6	Y6	Z6	X7	Y7	Z7	X8	Y8	Z8	X9	Y9	Z9	X10	Y10	Z10	X11	Y11	Z11	X12	Y12	Z12	X13	Y13	Z13	X14	Y14	Z14	X15	Y15	Z15	X16	Y16	Z16	X17	Y17	Z17	X18	Y18	Z18	X19	Y19	Z19	X20	Y20	Z20	X21	Y21	Z21	X22	Y22	Z22	X23	Y23	Z23	X24	Y24	Z24	X25	Y25	Z25	X26	Y26	Z26	X27	Y27	Z27	X28	Y28	Z28	X29	Y29	Z29	X30	Y30	Z30	X31	Y31	Z31	X32	Y32	Z32	X33	Y33	Z33	X34	Y34	Z34	X35	Y35	Z35	X36	Y36	Z36	X37	Y37	Z37	X38	Y38	Z38	X39	Y39	Z39	X40	Y40	Z40	X41	Y41	Z41	X42	Y42	Z42	X43	Y43	Z43	X44	Y44	Z44	

64	0.630	-1066.84326	-187.70381	1657.92236	-936.17310	-195.78452	1642.53296	-1077.53003	-320.29568	1604.35291	-948.92883	-326.98355	1593.99805	-1020.27283	-324.81873	1443.59558	-1010.09406	-363.13885	1114.91406	-1017.97076	-214.89809	1365.23145	-1021.75714	-175.81860	1191.81445	-939.18866	-400.33109	1274.45496	-1180.72302	-271.50000	1395.74438	-1254.64514	-305.18097	1197.89880	-1267.10535	-333.02505	1088.86230	-1296.39417	-333.52911	939.73254	-1264.42346	-283.42633	816.67212	-1295.27039	-348.99509	821.56885	-1297.00232	-323.53754	733.30896	-856.92303	-261.60477	1399.67407	-764.47260	-309.16272	1206.90015	-748.68750	-304.71011	1084.53015	-730.52283	-285.75330	965.84644	-765.53888	-221.02850	831.21478	-722.60114	-272.75632	828.75824	-723.08026	-230.49446	756.12183	-1117.50220	-184.00499	963.61609	-899.27423	-190.35757	955.88892	-1095.28186	-341.50052	984.48895	-928.19061	-339.66040	977.26080	-1179.27942	-201.55688	648.59204	-1148.38354	-164.93350	490.96329	-1137.19177	-193.73770	233.96979	-1090.30591	-198.85756	63.63095	-1045.19592	-241.17363	51.53648	-1082.99817	-55.31392	36.24805	-855.78271	-216.86649	612.35779	-874.27264	-198.28143	487.28006	-879.63672	-390.40274	321.02075	-921.04456	-544.32263	219.63710	-965.14148	-586.35345	238.33948	-930.27258	-497.02481	68.88535	-1013.05817	-291.16794	1694.46570												 
65	0.640	-1066.84412	-173.96849	1659.50964	-936.26215	-182.18729	1644.12378	-1077.88074	-306.54886	1606.35278	-949.32190	-313.33383	1595.85938	-1021.13129	-311.38571	1445.56921	-1011.02936	-350.51596	1117.09631	-1018.51312	-201.68315	1367.06836	-1022.38770	-163.05328	1193.50500	-940.47015	-387.19025	1276.64514	-1181.33301	-257.48083	1397.72461	-1255.29175	-287.52832	1198.98718	-1268.44202	-312.98352	1089.47241	-1297.36975	-308.94696	940.26672	-1264.52295	-255.92903	818.82593	-1296.13623	-321.40002	821.61584	-1298.15906	-293.11115	734.47894	-857.60901	-248.81969	1401.63159	-765.90192	-297.33798	1208.76477	-750.64789	-293.39594	1086.35327	-732.08160	-276.83572	967.35590	-766.28619	-215.18159	831.16260	-723.61560	-267.50842	829.74524	-723.67242	-227.01651	755.99542	-1118.30225	-172.06377	965.18176	-900.35437	-177.12782	958.26752	-1095.42651	-329.45456	986.51300	-928.14398	-326.99167	979.46063	-1179.75977	-194.08875	649.00067	-1149.00269	-159.53517	490.86597	-1138.04749	-191.47003	233.95512	-1090.66675	-198.75716	63.93010	-1045.38672	-241.47125	51.58224	-1083.08508	-55.47604	36.20213	-857.13757	-196.85300	615.49762	-876.58740	-175.04672	490.90353	-880.23425	-362.79907	320.16129	-920.79913	-514.49969	214.28214	-964.40448	-558.66809	231.18292	-930.80817	-459.35480	67.74360	-1013.24701	-277.34769	1696.33154												 
66	0.650	-1066.81018	-159.93739	1661.13269	-936.29822	-168.54002	1645.42004	-1078.16394	-292.73911	1608.33289	-949.62280	-299.90408	1597.63489	-1021.90222	-298.08521	1447.34241	-1011.89459	-337.94965	1119.30127	-1018.95441	-188.60701	1368.68176	-1023.04645	-150.23737	1195.11755	-941.43732	-374.32220	1278.74219	-1181.82813	-243.64476	1399.57764	-1256.11108	-270.15503	1200.12805	-1269.67212	-292.77066	1090.16431	-1298.18103	-284.36441	941.08411	-1264.32910	-229.97467	820.55920	-1296.87170	-293.67685	822.06152	-1299.55225	-262.29907	736.25421	-858.29822	-236.18170	1403.45874	-767.45038	-285.82126	1210.65710	-752.53522	-282.48706	1088.18005	-733.66138	-268.09360	968.84503	-767.01001	-210.03348	830.51282	-724.21765	-262.20947	831.23438	-724.24817	-223.47198	756.08710	-1119.32092	-160.37325	966.40405	-901.43561	-164.19362	960.32446	-1095.68640	-317.28265	988.28955	-928.32202	-314.01761	981.50275	-1179.97986	-185.58284	649.65210	-1149.28271	-154.63988	490.50818	-1138.92749	-188.97375	233.88329	-1090.68994	-198.74629	63.98626	-1045.45227	-241.72404	51.56995	-1083.13843	-55.54245	36.16540	-858.29089	-177.24632	618.62628	-878.52319	-152.37619	495.00952	-881.07495	-335.24115	318.48669	-920.63336	-484.19659	208.03485	-963.60327	-530.11011	222.55846	-928.63623	-417.02866	68.83930	-1013.37958	-263.39008	1697.99744												 
67	0.660	-1066.71521	-145.97301	1662.37769	-936.19080	-154.97617	1646.45630	-1078.42163	-278.98892	1610.11780	-949.95868	-286.42261	1599.19775	-1022.59424	-284.92441	1448.90674	-1012.61981	-325.36472	1121.18945	-1019.46136	-175.60721	1370.14172	-1023.86786	-137.51065	1196.48010	-942.17609	-361.58688	1280.62854	-1182.24207	-230.00331	1401.32678	-1256.68628	-252.80879	1201.27380	-1270.64526	-272.71216	1090.78406	-1298.78894	-259.66165	941.98792	-1264.54810	-200.75969	823.96924	-1297.50049	-265.83020	822.81110	-1300.61072	-230.90398	738.40240	-859.03674	-223.43901	1405.08435	-768.48816	-274.00006	1212.37244	-754.28711	-271.81827	1089.84473	-735.13776	-259.62177	970.23840	-767.66290	-203.48511	830.63745	-725.36395	-256.58212	832.22943	-724.75116	-219.94823	756.22369	-1120.48169	-148.50630	967.37665	-902.58661	-151.35559	962.22833	-1096.06311	-305.05850	989.87006	-928.77600	-300.93124	983.39105	-1180.39697	-177.84764	649.60883	-1149.95203	-149.70325	490.12439	-1139.44897	-186.43004	233.76979	-1090.71301	-198.68942	64.03760	-1045.58850	-241.79367	51.63781	-1083.23340	-55.49776	36.04813	-859.45410	-158.20901	621.63147	-880.59589	-130.17546	498.78485	-881.91150	-307.77557	316.64301	-920.45642	-453.05682	200.75021	-962.85504	-500.53787	212.59853	-929.17871	-376.95398	67.06939	-1013.41284	-249.39803	1699.61414												 
68	0.670	-1066.60913	-132.23085	1663.29333	-936.05402	-141.37596	1647.22961	-1078.72400	-265.24530	1611.74329	-950.23376	-273.01050	1600.45898	-1023.27863	-271.70868	1450.14136	-1013.25989	-312.73111	1122.75171	-1020.00287	-162.63177	1371.34753	-1024.64880	-124.84681	1197.58765	-942.79938	-348.74030	1282.34448	-1182.58801	-216.59752	1402.82214	-1257.46021	-235.77708	1202.34460	-1271.59387	-252.74535	1091.40540	-1299.28772	-234.99567	943.04968	-1263.53528	-174.08737	826.38647	-1297.84082	-237.70703	823.68011	-1301.50244	-199.60387	740.82343	-859.73688	-210.67346	1406.40222	-769.63843	-262.47156	1213.88965	-755.77734	-261.44379	1091.27856	-736.53137	-251.37503	971.43219	-768.30560	-198.52505	830.10272	-726.30542	-251.06892	833.37354	-725.30133	-216.30479	756.40594	-1121.71472	-136.73439	968.00543	-903.68109	-138.40919	963.86444	-1096.52563	-292.94122	991.14722	-929.02002	-288.43002	985.22125	-1180.66479	-170.20096	649.66962	-1150.54468	-145.20952	489.63516	-1139.61487	-184.47446	233.65276	-1090.52869	-198.44072	64.07384	-1045.61255	-241.80701	51.64153	-1083.37415	-55.35944	35.81220	-860.30927	-139.50746	624.50702	-882.52740	-108.39375	502.52615	-882.75055	-280.25122	314.61395	-920.41620	-420.96558	192.78441	-962.40497	-469.77753	201.68629	-929.83490	-336.40976	65.40997	-1013.36145	-235.40633	1700.91992												 
69	0.680	-1066.36365	-118.28724	1664.19543	-935.96893	-127.82514	1647.74402	-1078.97461	-251.51611	1613.10059	-950.57599	-259.60013	1601.46118	-1023.81006	-258.67960	1451.17126	-1013.84442	-300.24298	1124.13318	-1020.51727	-149.60258	1372.31201	-1025.50049	-112.22266	1198.42615	-943.35413	-336.01834	1283.76160	-1182.97083	-203.34869	1404.16907	-1257.93250	-218.75636	1203.28210	-1272.48669	-232.65393	1091.87781	-1299.24329	-209.81984	944.10333	-1263.07190	-146.34442	829.51263	-1297.98743	-209.39304	824.75366	-1302.16125	-168.08997	743.73828	-860.33374	-197.89944	1407.38623	-770.47369	-250.78545	1215.04675	-757.11346	-251.27589	1092.40137	-737.77472	-243.23366	972.36780	-768.81866	-192.66881	829.79156	-727.26880	-245.51234	834.39484	-725.84247	-212.54620	756.53595	-1122.89258	-124.87674	968.41620	-904.59698	-125.84332	965.17865	-1096.98767	-280.84537	992.19928	-929.51141	-275.76251	986.72321	-1180.95068	-162.61307	649.70300	-1151.19604	-140.51862	489.02765	-1139.50952	-183.30267	233.66063	-1090.42627	-198.37262	64.16029	-1045.50720	-241.72597	51.81102	-1083.62341	-55.20940	35.58062	-860.80621	-120.96400	627.12299	-884.48511	-86.61943	506.23425	-883.62958	-252.30887	312.15152	-920.60339	-387.82883	184.29146	-962.42487	-437.54895	190.18616	-929.82751	-295.41614	63.37395	-1013.24390	-221.53128	1701.92883												 
70	0.690	-1066.06433	-104.53927	1664.76074	-935.84125	-114.41042	1648.01025	-1079.18298	-237.82260	1614.20630	-950.85028	-246.26645	1602.21265	-1024.32544	-245.62373	1451.97156	-1014.36761	-287.73346	1125.21619	-1020.97504	-136.70638	1373.03198	-1026.41370	-99.60379	1199.06494	-943.90955	-323.34680	1284.87988	-1183.33240	-190.31706	1405.24573	-1258.71167	-201.95296	1204.07251	-1272.99402	-212.97151	1092.23169	-1299.40137	-185.32481	945.26166	-1262.03577	-119.73753	832.09229	-1297.77441	-180.92442	825.87201	-1302.52893	-136.42668	746.98596	-860.82281	-184.98828	1408.00391	-771.54956	-239.46185	1215.90588	-758.32751	-240.99458	1093.24536	-738.87323	-235.07104	973.05597	-768.86609	-186.41243	829.59167	-728.00439	-239.83307	835.28613	-726.40558	-208.61555	756.58813	-1124.17432	-113.05260	968.54822	-905.62567	-112.98972	966.33459	-1097.36084	-268.88394	992.96936	-930.01178	-262.86615	987.82172	-1181.13440	-155.02704	649.70001	-1151.92798	-135.89603	488.45419	-1139.62500	-182.87140	233.78593	-1090.23376	-198.31110	64.26852	-1045.40369	-241.93765	51.96819	-1083.87256	-55.12442	35.35355	-861.41382	-102.63055	630.13721	-886.28534	-65.13377	510.15225	-884.61682	-224.04985	309.44577	-920.70770	-354.02737	175.76701	-962.87054	-404.13730	178.48183	-929.60468	-254.56830	60.77789	-1013.18286	-207.69623	1702.77332												 
71	0.700	-1065.86279	-90.65755	1665.36279	-935.69550	-100.92342	1648.14441	-1079.45923	-224.14799	1615.06067	-951.13495	-232.86589	1602.78992	-1024.72644	-232.65369	1452.66199	-1014.83447	-275.25900	1125.94788	-1021.46600	-123.77104	1373.51807	-1027.26917	-87.07102	1199.45691	-944.52338	-310.45087	1285.63574	-1183.74658	-177.48376	1406.04858	-1259.32422	-185.24590	1204.71985	-1273.75854	-193.45718	1092.55994	-1299.48096	-160.99599	946.40997	-1261.29224	-91.63344	835.81696	-1297.53137	-152.55368	827.29822	-1302.72314	-104.81988	750.59723	-861.20093	-172.10333	1408.27136	-772.45099	-228.17813	1216.38403	-759.37292	-230.76743	1093.75879	-739.89258	-226.81648	973.47583	-769.67035	-180.72733	828.94299	-729.07867	-234.01967	835.70557	-727.01184	-204.38390	756.42139	-1125.37549	-101.15767	968.46008	-906.57288	-100.11592	967.15491	-1097.66809	-256.89236	993.40308	-930.29706	-250.56461	988.72906	-1181.60315	-147.41748	649.45496	-1152.03601	-131.64476	487.75580	-1139.63477	-182.13748	233.99017	-1090.06030	-198.26512	64.36831	-1045.20544	-241.79593	52.23239	-1084.24377	-54.97107	35.39694	-861.58228	-84.39689	633.02667	-887.95941	-44.17281	514.20551	-885.64166	-195.80757	306.72430	-921.68195	-319.11563	166.52884	-963.78522	-369.36493	166.58966	-928.90979	-213.33476	58.12867	-1013.12976	-193.95547	1703.34314												 
